# xmcd
#
# Track frame offsets: 
#        150
#        20696
#        38030
#        54071
#        80461
#        100905
#        119179
#        136285
#        158089
#        181339
#        202602
#        219168
#        240009
#        258610
#
# Disc length: 3683 seconds
#
# Revision: 0
# Processed by: cddbd v1.5.2PL0 Copyright (c) Steve Scherf et al.
# Submitted via: ExactAudioCopy v0.95a5
#
DISCID=ad0e610e
DTITLE=米线 - 如水天籁
DYEAR=2008
DGENRE=Pop
TTITLE0=阿玛拉
TTITLE1=想你
TTITLE2=陪你一起看草原
TTITLE3=香格里拉
TTITLE4=草原夜色美
TTITLE5=心的约会
TTITLE6=在那东山顶上
TTITLE7=慈祥的母亲
TTITLE8=歌唱
TTITLE9=一束花
TTITLE10=草原上升起不落的太阳
TTITLE11=菊花台
TTITLE12=家乡
TTITLE13=人间天堂
EXTD=
EXTT0=
EXTT1=
EXTT2=
EXTT3=
EXTT4=
EXTT5=
EXTT6=
EXTT7=
EXTT8=
EXTT9=
EXTT10=
EXTT11=
EXTT12=
EXTT13=
PLAYORDER=
